<svg width="26" height="26" viewBox="0 0 26 26" fill="none" xmlns="http://www.w3.org/2000/svg">
<circle cx="13" cy="13" r="12.25" fill="white" stroke="#EE6F2E" stroke-width="1.5"/>
<g clip-path="url(#clip0)">
<path d="M19.2196 11.7189H14.2795V6.77884C14.2795 6.34847 13.9304 5.99847 13.4992 5.99847C13.0688 5.99847 12.7188 6.34763 12.7188 6.77884V11.7189H7.77869C7.34916 11.7189 7 12.0681 7 12.4993C7 12.9297 7.34916 13.2797 7.78037 13.2797H12.7205V18.2198C12.7205 18.6502 13.0696 19.0001 13.5008 19.0001C13.9312 19.0001 14.2812 18.651 14.2812 18.2198V13.2797H19.2213C19.6517 13.2797 20.0017 12.9305 20.0017 12.4993C20 12.0681 19.6508 11.7189 19.2196 11.7189Z" fill="#EE6F2E"/>
</g>
<defs>
<clipPath id="clip0">
<rect width="13" height="13" fill="white" transform="translate(7 6)"/>
</clipPath>
</defs>
</svg>
