<svg width="338" height="377" viewBox="0 0 338 377" fill="none" xmlns="http://www.w3.org/2000/svg">
<g opacity="0.2" clip-path="url(#clip0)">
<path d="M108.17 293.44L125.21 276.33L135.28 286.39L118.24 303.5L108.17 293.44Z" fill="#4B9CDF"/>
<path d="M135.26 266.28L143.48 258.11L153.54 268.17L145.33 276.34L135.26 266.28Z" fill="#4B9CDF"/>
<path d="M89.95 275.17L106.99 258.07L117.05 268.13L100.01 285.23L89.95 275.17Z" fill="#87C44B"/>
<path d="M117.04 248.02L125.25 239.85L135.32 249.91L127.11 258.08L117.04 248.02Z" fill="#87C44B"/>
<path d="M135.266 266.259L125.214 276.317L135.279 286.376L145.331 276.318L135.266 266.259Z" fill="#184F83"/>
<path d="M152.37 303.44L135.28 286.39L145.33 276.34L162.43 293.38L152.37 303.44Z" fill="#4B75AC"/>
<path d="M117.047 247.998L106.995 258.056L117.059 268.115L127.112 258.058L117.047 247.998Z" fill="#6595AD"/>
<path d="M125.21 276.33L117.05 268.13L127.11 258.08L135.26 266.28L125.21 276.33Z" fill="#34B5D9"/>
<path d="M135.308 229.783L125.255 239.84L135.318 249.9L145.372 239.844L135.308 229.783Z" fill="#6595AD"/>
<path d="M153.527 248.04L143.475 258.098L153.54 268.157L163.592 258.1L153.527 248.04Z" fill="#184F83"/>
<path d="M170.64 285.21L153.54 268.17L163.59 258.12L180.69 275.16L170.64 285.21Z" fill="#4B75AC"/>
<path d="M135.32 249.91L145.37 239.85L153.53 248.06L143.48 258.11L135.32 249.91Z" fill="#34B5D9"/>
<path d="M198.12 366.8L215.16 349.7L225.23 359.76L208.19 376.86L198.12 366.8Z" fill="#4B9CDF"/>
<path d="M225.21 339.64L233.42 331.48L243.49 341.54L235.28 349.7L225.21 339.64Z" fill="#4B9CDF"/>
<path d="M179.9 348.54L196.94 331.44L207 341.5L189.96 358.6L179.9 348.54Z" fill="#87C44B"/>
<path d="M206.99 321.38L215.2 313.22L225.27 323.28L217.06 331.44L206.99 321.38Z" fill="#87C44B"/>
<path d="M225.217 339.622L215.164 349.68L225.229 359.739L235.281 349.681L225.217 339.622Z" fill="#184F83"/>
<path d="M242.32 376.8L225.23 359.76L235.28 349.7L252.38 366.75L242.32 376.8Z" fill="#4B75AC"/>
<path d="M206.997 321.361L196.945 331.419L207.01 341.478L217.062 331.42L206.997 321.361Z" fill="#6595AD"/>
<path d="M215.16 349.7L207 341.5L217.06 331.44L225.21 339.64L215.16 349.7Z" fill="#34B5D9"/>
<path d="M225.252 303.141L215.198 313.197L225.262 323.258L235.315 313.201L225.252 303.141Z" fill="#6595AD"/>
<path d="M243.477 321.403L233.425 331.461L243.49 341.52L253.542 331.462L243.477 321.403Z" fill="#184F83"/>
<path d="M260.59 358.58L243.49 341.54L253.54 331.48L270.64 348.53L260.59 358.58Z" fill="#4B75AC"/>
<path d="M225.27 323.28L235.32 313.22L243.48 321.42L233.42 331.48L225.27 323.28Z" fill="#34B5D9"/>
<path d="M286.15 293.44L303.19 276.33L313.25 286.39L296.21 303.5L286.15 293.44Z" fill="#4B9CDF"/>
<path d="M313.24 266.28L321.45 258.11L331.52 268.17L323.31 276.34L313.24 266.28Z" fill="#4B9CDF"/>
<path d="M267.93 275.17L284.97 258.07L295.03 268.13L277.99 285.23L267.93 275.17Z" fill="#87C44B"/>
<path d="M295.02 248.02L303.23 239.85L313.29 249.91L305.08 258.08L295.02 248.02Z" fill="#87C44B"/>
<path d="M313.237 266.252L303.185 276.31L313.25 286.369L323.302 276.311L313.237 266.252Z" fill="#184F83"/>
<path d="M330.35 303.44L313.25 286.39L323.31 276.34L340.4 293.38L330.35 303.44Z" fill="#4B75AC"/>
<path d="M295.018 247.991L284.966 258.049L295.03 268.108L305.083 258.05L295.018 247.991Z" fill="#6595AD"/>
<path d="M303.19 276.33L295.03 268.13L305.08 258.08L313.24 266.28L303.19 276.33Z" fill="#34B5D9"/>
<path d="M313.281 229.778L303.228 239.834L313.291 249.895L323.345 239.839L313.281 229.778Z" fill="#6595AD"/>
<path d="M331.498 248.033L321.446 258.091L331.511 268.15L341.563 258.092L331.498 248.033Z" fill="#184F83"/>
<path d="M348.61 285.21L331.52 268.17L341.57 258.12L358.67 275.16L348.61 285.21Z" fill="#4B75AC"/>
<path d="M313.29 249.91L323.35 239.85L331.5 248.06L321.45 258.11L313.29 249.91Z" fill="#34B5D9"/>
<path d="M18.22 63.64L35.26 46.54L45.33 56.6L28.29 73.7L18.22 63.64Z" fill="#4B9CDF"/>
<path d="M45.3101 36.4798L53.5301 28.3198L63.5901 38.3798L55.3801 46.5398L45.3101 36.4798Z" fill="#4B9CDF"/>
<path d="M0 45.3798L17.04 28.2798L27.1 38.3398L10.06 55.4398L0 45.3798Z" fill="#87C44B"/>
<path d="M27.0901 18.2201L35.3001 10.0601L45.3701 20.1101L37.1601 28.2801L27.0901 18.2201Z" fill="#87C44B"/>
<path d="M45.3153 36.4822L35.2632 46.54L45.3281 56.5992L55.3802 46.5414L45.3153 36.4822Z" fill="#184F83"/>
<path d="M62.4201 73.64L45.3301 56.6L55.3801 46.54L72.4801 63.59L62.4201 73.64Z" fill="#4B75AC"/>
<path d="M27.0961 18.221L17.0439 28.2788L27.1088 38.338L37.1609 28.2802L27.0961 18.221Z" fill="#6595AD"/>
<path d="M35.2601 46.5398L27.1001 38.3398L37.1601 28.2798L45.3101 36.4798L35.2601 46.5398Z" fill="#34B5D9"/>
<path d="M45.3519 -0.00413864L35.2983 10.0522L45.3618 20.1129L55.4153 10.0565L45.3519 -0.00413864Z" fill="#6595AD"/>
<path d="M63.5692 18.2562L53.5171 28.314L63.582 38.3732L73.6341 28.3153L63.5692 18.2562Z" fill="#184F83"/>
<path d="M80.6901 55.4198L63.5901 38.3798L73.6401 28.3198L90.7401 45.3698L80.6901 55.4198Z" fill="#4B75AC"/>
<path d="M45.3701 20.1101L55.4201 10.0601L63.5801 18.2601L53.5301 28.3201L45.3701 20.1101Z" fill="#34B5D9"/>
<path d="M108.17 137.51L125.21 120.41L135.28 130.47L118.24 147.57L108.17 137.51Z" fill="#4B9CDF"/>
<path d="M135.26 110.35L143.48 102.19L153.54 112.25L145.33 120.41L135.26 110.35Z" fill="#4B9CDF"/>
<path d="M89.95 119.25L106.99 102.15L117.05 112.21L100.01 129.31L89.95 119.25Z" fill="#87C44B"/>
<path d="M117.04 92.0904L125.25 83.9204L135.32 93.9804L127.11 102.15L117.04 92.0904Z" fill="#87C44B"/>
<path d="M135.264 110.346L125.212 120.403L135.277 130.463L145.329 120.405L135.264 110.346Z" fill="#184F83"/>
<path d="M152.37 147.51L135.28 130.47L145.33 120.41L162.43 137.46L152.37 147.51Z" fill="#4B75AC"/>
<path d="M117.038 92.0774L106.985 102.135L117.05 112.194L127.102 102.137L117.038 92.0774Z" fill="#6595AD"/>
<path d="M125.21 120.41L117.05 112.21L127.11 102.15L135.26 110.35L125.21 120.41Z" fill="#34B5D9"/>
<path d="M135.301 73.8611L125.247 83.9175L135.311 93.9781L145.364 83.9217L135.301 73.8611Z" fill="#6595AD"/>
<path d="M153.518 92.1199L143.466 102.178L153.531 112.237L163.583 102.179L153.518 92.1199Z" fill="#184F83"/>
<path d="M170.64 129.29L153.54 112.25L163.59 102.19L180.69 119.23L170.64 129.29Z" fill="#4B75AC"/>
<path d="M135.32 93.9802L145.37 83.9302L153.53 92.1302L143.48 102.19L135.32 93.9802Z" fill="#34B5D9"/>
<path d="M18.22 210.88L35.26 193.78L45.33 203.84L28.29 220.94L18.22 210.88Z" fill="#4B9CDF"/>
<path d="M45.3101 183.72L53.5301 175.55L63.5901 185.61L55.3801 193.78L45.3101 183.72Z" fill="#4B9CDF"/>
<path d="M0 192.62L17.04 175.51L27.1 185.57L10.06 202.68L0 192.62Z" fill="#87C44B"/>
<path d="M27.0901 165.46L35.3001 157.29L45.3701 167.35L37.1601 175.52L27.0901 165.46Z" fill="#87C44B"/>
<path d="M45.3158 183.707L35.2637 193.765L45.3285 203.824L55.3807 193.767L45.3158 183.707Z" fill="#184F83"/>
<path d="M62.4201 220.88L45.3301 203.84L55.3801 193.78L72.4801 210.83L62.4201 220.88Z" fill="#4B75AC"/>
<path d="M27.0966 165.447L17.0444 175.504L27.1093 185.564L37.1614 175.506L27.0966 165.447Z" fill="#6595AD"/>
<path d="M35.2601 193.78L27.1001 185.57L37.1601 175.52L45.3101 183.72L35.2601 193.78Z" fill="#34B5D9"/>
<path d="M45.358 147.23L35.3044 157.286L45.3679 167.347L55.4214 157.29L45.358 147.23Z" fill="#6595AD"/>
<path d="M63.5768 165.489L53.5247 175.546L63.5895 185.606L73.6417 175.548L63.5768 165.489Z" fill="#184F83"/>
<path d="M80.6901 202.66L63.5901 185.61L73.6401 175.56L90.7401 192.6L80.6901 202.66Z" fill="#4B75AC"/>
<path d="M45.3701 167.35L55.4201 157.3L63.5801 165.5L53.5301 175.55L45.3701 167.35Z" fill="#34B5D9"/>
<path d="M198.12 63.64L215.16 46.54L225.23 56.6L208.19 73.7L198.12 63.64Z" fill="#4B9CDF"/>
<path d="M225.21 36.4798L233.42 28.3198L243.49 38.3798L235.28 46.5398L225.21 36.4798Z" fill="#4B9CDF"/>
<path d="M179.9 45.3798L196.94 28.2798L207 38.3398L189.96 55.4398L179.9 45.3798Z" fill="#87C44B"/>
<path d="M206.99 18.2201L215.2 10.0601L225.27 20.1101L217.06 28.2801L206.99 18.2201Z" fill="#87C44B"/>
<path d="M225.207 36.4759L215.155 46.5337L225.22 56.5929L235.272 46.5351L225.207 36.4759Z" fill="#184F83"/>
<path d="M242.32 73.64L225.23 56.6L235.28 46.54L252.38 63.59L242.32 73.64Z" fill="#4B75AC"/>
<path d="M206.987 18.2151L196.935 28.2729L207 38.3321L217.052 28.2743L206.987 18.2151Z" fill="#6595AD"/>
<path d="M215.16 46.5398L207 38.3398L217.06 28.2798L225.21 36.4798L215.16 46.5398Z" fill="#34B5D9"/>
<path d="M225.245 -0.00853317L215.192 10.0479L225.255 20.1085L235.309 10.0521L225.245 -0.00853317Z" fill="#6595AD"/>
<path d="M243.461 18.2498L233.408 28.3076L243.473 38.3668L253.525 28.309L243.461 18.2498Z" fill="#184F83"/>
<path d="M260.59 55.4198L243.49 38.3798L253.54 28.3198L270.64 45.3698L260.59 55.4198Z" fill="#4B75AC"/>
<path d="M225.27 20.1101L235.32 10.0601L243.48 18.2601L233.42 28.3201L225.27 20.1101Z" fill="#34B5D9"/>
<path d="M198.12 210.88L215.16 193.78L225.23 203.84L208.19 220.94L198.12 210.88Z" fill="#4B9CDF"/>
<path d="M225.21 183.72L233.42 175.55L243.49 185.61L235.28 193.78L225.21 183.72Z" fill="#4B9CDF"/>
<path d="M179.9 192.62L196.94 175.51L207 185.57L189.96 202.68L179.9 192.62Z" fill="#87C44B"/>
<path d="M206.99 165.46L215.2 157.29L225.27 167.35L217.06 175.52L206.99 165.46Z" fill="#87C44B"/>
<path d="M225.207 183.7L215.155 193.758L225.22 203.817L235.272 193.76L225.207 183.7Z" fill="#184F83"/>
<path d="M242.32 220.88L225.23 203.84L235.28 193.78L252.38 210.83L242.32 220.88Z" fill="#4B75AC"/>
<path d="M206.988 165.44L196.936 175.498L207.001 185.557L217.053 175.499L206.988 165.44Z" fill="#6595AD"/>
<path d="M215.16 193.78L207 185.57L217.06 175.52L225.21 183.72L215.16 193.78Z" fill="#34B5D9"/>
<path d="M225.251 147.225L215.198 157.281L225.261 167.342L235.315 157.285L225.251 147.225Z" fill="#6595AD"/>
<path d="M243.468 165.482L233.416 175.54L243.481 185.599L253.533 175.541L243.468 165.482Z" fill="#184F83"/>
<path d="M260.59 202.66L243.49 185.61L253.54 175.56L270.64 192.6L260.59 202.66Z" fill="#4B75AC"/>
<path d="M225.27 167.35L235.32 157.3L243.48 165.5L233.42 175.55L225.27 167.35Z" fill="#34B5D9"/>
<path d="M286.15 137.51L303.19 120.41L313.25 130.47L296.21 147.57L286.15 137.51Z" fill="#4B9CDF"/>
<path d="M313.24 110.35L321.45 102.19L331.52 112.25L323.31 120.41L313.24 110.35Z" fill="#4B9CDF"/>
<path d="M267.93 119.25L284.97 102.15L295.03 112.21L277.99 129.31L267.93 119.25Z" fill="#87C44B"/>
<path d="M295.02 92.0899L303.23 83.9199L313.29 93.9799L305.08 102.15L295.02 92.0899Z" fill="#87C44B"/>
<path d="M313.235 110.338L303.183 120.396L313.248 130.455L323.3 120.397L313.235 110.338Z" fill="#184F83"/>
<path d="M330.35 147.51L313.25 130.47L323.31 120.41L340.4 137.46L330.35 147.51Z" fill="#4B75AC"/>
<path d="M295.008 92.0696L284.956 102.127L295.021 112.187L305.073 102.129L295.008 92.0696Z" fill="#6595AD"/>
<path d="M303.19 120.41L295.03 112.21L305.08 102.15L313.24 110.35L303.19 120.41Z" fill="#34B5D9"/>
<path d="M313.274 73.8552L303.22 83.9116L313.283 93.9722L323.337 83.9158L313.274 73.8552Z" fill="#6595AD"/>
<path d="M331.489 92.1121L321.437 102.17L331.502 112.229L341.554 102.171L331.489 92.1121Z" fill="#184F83"/>
<path d="M348.61 129.29L331.52 112.25L341.57 102.19L358.67 119.23L348.61 129.29Z" fill="#4B75AC"/>
<path d="M313.29 93.9802L323.35 83.9302L331.5 92.1302L321.45 102.19L313.29 93.9802Z" fill="#34B5D9"/>
</g>
<defs>
<clipPath id="clip0">
<rect width="358.67" height="376.86" fill="white"/>
</clipPath>
</defs>
</svg>
