<svg width="336" height="377" viewBox="0 0 336 377" fill="none" xmlns="http://www.w3.org/2000/svg">
<g opacity="0.2" clip-path="url(#clip0)">
<path d="M-6.78003 146.2L10.26 129.1L20.33 139.16L3.28997 156.26L-6.78003 146.2Z" fill="#4B9CDF"/>
<path d="M20.3101 119.04L28.5301 110.88L38.5901 120.94L30.3801 129.1L20.3101 119.04Z" fill="#4B9CDF"/>
<path d="M-25 127.94L-7.96 110.84L2.1 120.9L-14.94 138L-25 127.94Z" fill="#87C44B"/>
<path d="M2.09009 100.78L10.3001 92.6104L20.3701 102.67L12.1601 110.84L2.09009 100.78Z" fill="#87C44B"/>
<path d="M20.3126 119.031L10.2605 129.089L20.3254 139.148L30.3775 129.09L20.3126 119.031Z" fill="#184F83"/>
<path d="M37.4201 156.2L20.3301 139.16L30.3801 129.1L47.4801 146.15L37.4201 156.2Z" fill="#4B75AC"/>
<path d="M2.09338 100.77L-7.95874 110.828L2.10614 120.887L12.1583 110.829L2.09338 100.77Z" fill="#6595AD"/>
<path d="M10.2601 129.1L2.1001 120.9L12.1601 110.84L20.3101 119.04L10.2601 129.1Z" fill="#34B5D9"/>
<path d="M20.3555 82.5525L10.302 92.6089L20.3655 102.669L30.419 92.6131L20.3555 82.5525Z" fill="#6595AD"/>
<path d="M38.5736 100.812L28.5215 110.87L38.5864 120.929L48.6385 110.871L38.5736 100.812Z" fill="#184F83"/>
<path d="M55.6901 137.98L38.5901 120.94L48.6401 110.88L65.7401 127.92L55.6901 137.98Z" fill="#4B75AC"/>
<path d="M20.3701 102.67L30.4201 92.6201L38.5801 100.82L28.5301 110.88L20.3701 102.67Z" fill="#34B5D9"/>
<path d="M173.12 146.2L190.16 129.1L200.23 139.16L183.19 156.26L173.12 146.2Z" fill="#4B9CDF"/>
<path d="M200.21 119.04L208.42 110.88L218.49 120.94L210.28 129.1L200.21 119.04Z" fill="#4B9CDF"/>
<path d="M154.9 127.94L171.94 110.84L182 120.9L164.96 138L154.9 127.94Z" fill="#87C44B"/>
<path d="M181.99 100.78L190.2 92.6099L200.27 102.67L192.06 110.84L181.99 100.78Z" fill="#87C44B"/>
<path d="M200.204 119.024L190.152 129.082L200.217 139.141L210.269 129.083L200.204 119.024Z" fill="#184F83"/>
<path d="M217.32 156.2L200.23 139.16L210.28 129.1L227.38 146.15L217.32 156.2Z" fill="#4B75AC"/>
<path d="M181.985 100.763L171.933 110.821L181.997 120.88L192.05 110.822L181.985 100.763Z" fill="#6595AD"/>
<path d="M190.16 129.1L182 120.9L192.06 110.84L200.21 119.04L190.16 129.1Z" fill="#34B5D9"/>
<path d="M200.249 82.5476L190.195 92.604L200.259 102.665L210.312 92.6082L200.249 82.5476Z" fill="#6595AD"/>
<path d="M218.465 100.805L208.413 110.863L218.478 120.922L228.53 110.865L218.465 100.805Z" fill="#184F83"/>
<path d="M235.59 137.98L218.49 120.94L228.54 110.88L245.64 127.92L235.59 137.98Z" fill="#4B75AC"/>
<path d="M200.27 102.67L210.32 92.6196L218.48 100.82L208.42 110.88L200.27 102.67Z" fill="#34B5D9"/>
<path d="M83.1699 219.57L100.21 202.46L110.28 212.52L93.2399 229.63L83.1699 219.57Z" fill="#4B9CDF"/>
<path d="M110.26 192.41L118.48 184.24L128.54 194.3L120.33 202.47L110.26 192.41Z" fill="#4B9CDF"/>
<path d="M64.95 201.3L81.99 184.2L92.05 194.26L75.01 211.36L64.95 201.3Z" fill="#87C44B"/>
<path d="M92.04 174.15L100.25 165.98L110.32 176.04L102.11 184.21L92.04 174.15Z" fill="#87C44B"/>
<path d="M110.263 192.393L100.211 202.451L110.276 212.51L120.328 202.452L110.263 192.393Z" fill="#184F83"/>
<path d="M127.37 229.57L110.28 212.52L120.33 202.47L137.43 219.51L127.37 229.57Z" fill="#4B75AC"/>
<path d="M92.0438 174.132L81.9917 184.19L92.0566 194.249L102.109 184.191L92.0438 174.132Z" fill="#6595AD"/>
<path d="M100.21 202.46L92.05 194.26L102.11 184.21L110.26 192.41L100.21 202.46Z" fill="#34B5D9"/>
<path d="M110.306 155.916L100.252 165.973L110.316 176.033L120.369 165.977L110.306 155.916Z" fill="#6595AD"/>
<path d="M128.524 174.174L118.472 184.232L128.537 194.291L138.589 184.233L128.524 174.174Z" fill="#184F83"/>
<path d="M145.64 211.35L128.54 194.3L138.59 184.25L155.69 201.29L145.64 211.35Z" fill="#4B75AC"/>
<path d="M110.32 176.04L120.37 165.98L128.53 174.19L118.48 184.24L110.32 176.04Z" fill="#34B5D9"/>
<path d="M-6.78003 293.44L10.26 276.33L20.33 286.39L3.28997 303.5L-6.78003 293.44Z" fill="#4B9CDF"/>
<path d="M20.3101 266.28L28.5301 258.11L38.5901 268.17L30.3801 276.34L20.3101 266.28Z" fill="#4B9CDF"/>
<path d="M-25 275.17L-7.96 258.07L2.1 268.13L-14.94 285.23L-25 275.17Z" fill="#87C44B"/>
<path d="M2.09009 248.02L10.3001 239.85L20.3701 249.91L12.1601 258.08L2.09009 248.02Z" fill="#87C44B"/>
<path d="M20.3204 266.263L10.2683 276.32L20.3332 286.38L30.3853 276.322L20.3204 266.263Z" fill="#184F83"/>
<path d="M37.4201 303.44L20.3301 286.39L30.3801 276.34L47.4801 293.38L37.4201 303.44Z" fill="#4B75AC"/>
<path d="M2.10095 248.002L-7.95117 258.06L2.1137 268.119L12.1658 258.061L2.10095 248.002Z" fill="#6595AD"/>
<path d="M10.2601 276.33L2.1001 268.13L12.1601 258.08L20.3101 266.28L10.2601 276.33Z" fill="#34B5D9"/>
<path d="M20.3616 229.786L10.3081 239.842L20.3716 249.903L30.4251 239.847L20.3616 229.786Z" fill="#6595AD"/>
<path d="M38.5812 248.044L28.5291 258.102L38.5939 268.161L48.6461 258.103L38.5812 248.044Z" fill="#184F83"/>
<path d="M55.6901 285.21L38.5901 268.17L48.6401 258.12L65.7401 275.16L55.6901 285.21Z" fill="#4B75AC"/>
<path d="M20.3701 249.91L30.4201 239.85L38.5801 248.06L28.5301 258.11L20.3701 249.91Z" fill="#34B5D9"/>
<path d="M173.12 293.44L190.16 276.33L200.23 286.39L183.19 303.5L173.12 293.44Z" fill="#4B9CDF"/>
<path d="M200.21 266.28L208.42 258.11L218.49 268.17L210.28 276.34L200.21 266.28Z" fill="#4B9CDF"/>
<path d="M154.9 275.17L171.94 258.07L182 268.13L164.96 285.23L154.9 275.17Z" fill="#87C44B"/>
<path d="M181.99 248.02L190.2 239.85L200.27 249.91L192.06 258.08L181.99 248.02Z" fill="#87C44B"/>
<path d="M200.212 266.257L190.159 276.314L200.224 286.374L210.276 276.316L200.212 266.257Z" fill="#184F83"/>
<path d="M217.32 303.44L200.23 286.39L210.28 276.34L227.38 293.38L217.32 303.44Z" fill="#4B75AC"/>
<path d="M181.992 247.995L171.94 258.053L182.005 268.112L192.057 258.055L181.992 247.995Z" fill="#6595AD"/>
<path d="M190.16 276.33L182 268.13L192.06 258.08L200.21 266.28L190.16 276.33Z" fill="#34B5D9"/>
<path d="M200.255 229.782L190.201 239.838L200.265 249.898L210.318 239.842L200.255 229.782Z" fill="#6595AD"/>
<path d="M218.473 248.037L208.42 258.095L218.485 268.154L228.537 258.097L218.473 248.037Z" fill="#184F83"/>
<path d="M235.59 285.21L218.49 268.17L228.54 258.12L245.64 275.16L235.59 285.21Z" fill="#4B75AC"/>
<path d="M200.27 249.91L210.32 239.85L218.48 248.06L208.42 258.11L200.27 249.91Z" fill="#34B5D9"/>
<path d="M83.1699 366.8L100.21 349.7L110.28 359.76L93.2399 376.86L83.1699 366.8Z" fill="#4B9CDF"/>
<path d="M110.26 339.64L118.48 331.48L128.54 341.54L120.33 349.7L110.26 339.64Z" fill="#4B9CDF"/>
<path d="M64.95 348.54L81.99 331.44L92.05 341.5L75.01 358.6L64.95 348.54Z" fill="#87C44B"/>
<path d="M92.04 321.38L100.25 313.22L110.32 323.28L102.11 331.44L92.04 321.38Z" fill="#87C44B"/>
<path d="M110.271 339.625L100.219 349.683L110.283 359.742L120.336 349.684L110.271 339.625Z" fill="#184F83"/>
<path d="M127.37 376.8L110.28 359.76L120.33 349.7L137.43 366.75L127.37 376.8Z" fill="#4B75AC"/>
<path d="M92.0514 321.364L81.9993 331.422L92.0642 341.481L102.116 331.423L92.0514 321.364Z" fill="#6595AD"/>
<path d="M100.21 349.7L92.05 341.5L102.11 331.44L110.26 339.64L100.21 349.7Z" fill="#34B5D9"/>
<path d="M110.305 303.143L100.251 313.199L110.315 323.26L120.368 313.203L110.305 303.143Z" fill="#6595AD"/>
<path d="M128.532 321.406L118.479 331.464L128.544 341.523L138.596 331.465L128.532 321.406Z" fill="#184F83"/>
<path d="M145.64 358.58L128.54 341.54L138.59 331.48L155.69 348.53L145.64 358.58Z" fill="#4B75AC"/>
<path d="M110.32 323.28L120.37 313.22L128.53 321.42L118.48 331.48L110.32 323.28Z" fill="#34B5D9"/>
<path d="M263.07 219.57L280.11 202.46L290.18 212.52L273.14 229.63L263.07 219.57Z" fill="#4B9CDF"/>
<path d="M290.16 192.41L298.37 184.24L308.44 194.3L300.23 202.47L290.16 192.41Z" fill="#4B9CDF"/>
<path d="M244.85 201.3L261.89 184.2L271.95 194.26L254.91 211.36L244.85 201.3Z" fill="#87C44B"/>
<path d="M271.94 174.15L280.15 165.98L290.22 176.04L282 184.21L271.94 174.15Z" fill="#87C44B"/>
<path d="M290.155 192.387L280.103 202.444L290.167 212.504L300.22 202.446L290.155 192.387Z" fill="#184F83"/>
<path d="M307.27 229.57L290.18 212.52L300.23 202.47L317.33 219.51L307.27 229.57Z" fill="#4B75AC"/>
<path d="M271.935 174.125L261.883 184.183L271.948 194.242L282 184.184L271.935 174.125Z" fill="#6595AD"/>
<path d="M280.11 202.46L271.95 194.26L282 184.21L290.16 192.41L280.11 202.46Z" fill="#34B5D9"/>
<path d="M290.2 155.912L280.146 165.968L290.209 176.029L300.263 165.972L290.2 155.912Z" fill="#6595AD"/>
<path d="M308.415 174.168L298.363 184.226L308.428 194.285L318.48 184.227L308.415 174.168Z" fill="#184F83"/>
<path d="M325.54 211.35L308.44 194.3L318.49 184.25L335.59 201.29L325.54 211.35Z" fill="#4B75AC"/>
<path d="M290.22 176.04L300.27 165.98L308.43 174.19L298.37 184.24L290.22 176.04Z" fill="#34B5D9"/>
<path d="M263.07 366.8L280.11 349.7L290.18 359.76L273.14 376.86L263.07 366.8Z" fill="#4B9CDF"/>
<path d="M290.16 339.64L298.37 331.48L308.44 341.54L300.23 349.7L290.16 339.64Z" fill="#4B9CDF"/>
<path d="M244.85 348.54L261.89 331.44L271.95 341.5L254.91 358.6L244.85 348.54Z" fill="#87C44B"/>
<path d="M271.94 321.38L280.15 313.22L290.22 323.28L282 331.44L271.94 321.38Z" fill="#87C44B"/>
<path d="M290.162 339.618L280.11 349.676L290.175 359.735L300.227 349.678L290.162 339.618Z" fill="#184F83"/>
<path d="M307.27 376.8L290.18 359.76L300.23 349.7L317.33 366.75L307.27 376.8Z" fill="#4B75AC"/>
<path d="M271.943 321.358L261.891 331.416L271.956 341.475L282.008 331.417L271.943 321.358Z" fill="#6595AD"/>
<path d="M280.11 349.7L271.95 341.5L282 331.44L290.16 339.64L280.11 349.7Z" fill="#34B5D9"/>
<path d="M290.199 303.138L280.145 313.195L290.208 323.255L300.262 313.199L290.199 303.138Z" fill="#6595AD"/>
<path d="M308.423 321.4L298.371 331.458L308.436 341.517L318.488 331.459L308.423 321.4Z" fill="#184F83"/>
<path d="M325.54 358.58L308.44 341.54L318.49 331.48L335.59 348.53L325.54 358.58Z" fill="#4B75AC"/>
<path d="M290.22 323.28L300.27 313.22L308.43 321.42L298.37 331.48L290.22 323.28Z" fill="#34B5D9"/>
<path d="M83.1699 63.64L100.21 46.54L110.28 56.6L93.2399 73.7L83.1699 63.64Z" fill="#4B9CDF"/>
<path d="M110.26 36.4803L118.48 28.3203L128.54 38.3803L120.33 46.5403L110.26 36.4803Z" fill="#4B9CDF"/>
<path d="M64.95 45.3803L81.99 28.2803L92.05 38.3403L75.01 55.4403L64.95 45.3803Z" fill="#87C44B"/>
<path d="M92.04 18.2201L100.25 10.0601L110.32 20.1101L102.11 28.2801L92.04 18.2201Z" fill="#87C44B"/>
<path d="M110.261 36.4793L100.209 46.5371L110.274 56.5963L120.326 46.5385L110.261 36.4793Z" fill="#184F83"/>
<path d="M127.37 73.64L110.28 56.6L120.33 46.54L137.43 63.59L127.37 73.64Z" fill="#4B75AC"/>
<path d="M92.0416 18.2186L81.9895 28.2764L92.0544 38.3356L102.107 28.2777L92.0416 18.2186Z" fill="#6595AD"/>
<path d="M100.21 46.5403L92.05 38.3403L102.11 28.2803L110.26 36.4803L100.21 46.5403Z" fill="#34B5D9"/>
<path d="M110.299 -0.00609176L100.245 10.0503L110.309 20.1109L120.362 10.0545L110.299 -0.00609176Z" fill="#6595AD"/>
<path d="M128.515 18.2537L118.463 28.3115L128.528 38.3707L138.58 28.3129L128.515 18.2537Z" fill="#184F83"/>
<path d="M145.64 55.4203L128.54 38.3803L138.59 28.3203L155.69 45.3703L145.64 55.4203Z" fill="#4B75AC"/>
<path d="M110.32 20.1101L120.37 10.0601L128.53 18.2601L118.48 28.3201L110.32 20.1101Z" fill="#34B5D9"/>
</g>
<defs>
<clipPath id="clip0">
<rect width="360.59" height="376.86" fill="white" transform="translate(-25)"/>
</clipPath>
</defs>
</svg>
