<svg width="24" height="26" viewBox="0 0 24 26" fill="none" xmlns="http://www.w3.org/2000/svg">
<path d="M22 26H2C0.896667 26 0 25.1033 0 24V4C0 2.89667 0.896667 2 2 2H22C23.1033 2 24 2.89667 24 4V24C24 25.1033 23.1033 26 22 26ZM2 4V24H22V4H2Z" fill="#333333"/>
<path d="M18 6C17.4483 6 17 5.55167 17 5V1C17 0.448333 17.4483 0 18 0C18.5517 0 19 0.448333 19 1V5C19 5.55167 18.5517 6 18 6Z" fill="#333333"/>
<path d="M6 6C5.44833 6 5 5.55167 5 5V1C5 0.448333 5.44833 0 6 0C6.55167 0 7 0.448333 7 1V5C7 5.55167 6.55167 6 6 6Z" fill="#333333"/>
<path d="M23 10H1C0.448333 10 0 9.55167 0 9C0 8.44833 0.448333 8 1 8H23C23.5517 8 24 8.44833 24 9C24 9.55167 23.5517 10 23 10Z" fill="#333333"/>
<path d="M9 21.5C8.2 21.5 7.44667 21.1883 6.88 20.6233C6.49 20.2333 6.48833 19.6 6.87833 19.2083C7.26833 18.8183 7.90167 18.8167 8.29333 19.2083C8.48167 19.395 8.73333 19.5 9 19.5C9.55167 19.5 10 19.0517 10 18.5C10 17.9483 9.55167 17.5 9 17.5C8.615 17.5 8.265 17.28 8.09833 16.9333C7.93167 16.5867 7.97833 16.175 8.21833 15.875L8.91833 15H7.5C6.94833 15 6.5 14.5517 6.5 14C6.5 13.4483 6.94833 13 7.5 13H11C11.385 13 11.735 13.22 11.9017 13.5667C12.0683 13.9133 12.0217 14.325 11.7817 14.625L10.6733 16.01C11.4733 16.55 12 17.4633 12 18.5C12 20.1533 10.655 21.5 9 21.5Z" fill="#333333"/>
<path d="M15.9992 21.5C15.4475 21.5 14.9992 21.0516 14.9992 20.5V16L14.5992 16.3C14.1575 16.6316 13.5308 16.5416 13.1992 16.1C12.8675 15.6583 12.9575 15.0316 13.3992 14.7L15.3992 13.2C15.7025 12.9733 16.1075 12.9366 16.4458 13.105C16.7842 13.275 16.9992 13.62 16.9992 14V20.5C16.9992 21.0516 16.5508 21.5 15.9992 21.5Z" fill="#333333"/>
</svg>
