<svg width="156" height="156" viewBox="0 0 156 156" fill="none" xmlns="http://www.w3.org/2000/svg">
<path d="M67 108C65.51 108 64.02 107.45 62.86 106.34L40.86 85.3399C38.46 83.0499 38.38 79.2499 40.66 76.8599C42.95 74.4599 46.75 74.3799 49.14 76.6599L67 93.7099L106.86 55.6599C109.26 53.3699 113.06 53.4599 115.34 55.8599C117.63 58.2599 117.54 62.0599 115.14 64.3399L71.14 106.34C69.98 107.45 68.49 108 67 108Z" fill="#95C15C"/>
<path d="M78 156C34.99 156 0 121.01 0 78C0 34.99 34.99 0 78 0C121.01 0 156 34.99 156 78C156 121.01 121.01 156 78 156ZM78 12C41.61 12 12 41.61 12 78C12 114.39 41.61 144 78 144C114.39 144 144 114.39 144 78C144 41.61 114.39 12 78 12Z" fill="#95C15C"/>
</svg>
