<svg width="16" height="16" viewBox="0 0 16 16" fill="none" xmlns="http://www.w3.org/2000/svg">
<path d="M9.61621 7.99944L15.6656 1.95004C16.1115 1.50419 16.1115 0.780241 15.6656 0.334389C15.2198 -0.111463 14.4958 -0.111463 14.0488 0.334389L7.99944 6.38379L1.95116 0.334389C1.50531 -0.111463 0.781367 -0.111463 0.334389 0.334389C-0.111463 0.780241 -0.111463 1.50419 0.334389 1.95004L6.38379 7.99944L0.334389 14.0488C-0.111463 14.4947 -0.111463 15.2186 0.334389 15.6645C0.557315 15.8874 0.850046 15.9989 1.14278 15.9989C1.43551 15.9989 1.72824 15.8874 1.95116 15.6645L7.99944 9.61621L14.0477 15.6645C14.2706 15.8874 14.5634 15.9989 14.8561 15.9989C15.1488 15.9989 15.4416 15.8874 15.6645 15.6645C16.1103 15.2186 16.1103 14.4947 15.6645 14.0488L9.61621 7.99944Z" fill="white"/>
</svg>
