<svg width="22" height="22" viewBox="0 0 22 22" fill="none" xmlns="http://www.w3.org/2000/svg">
<path fill-rule="evenodd" clip-rule="evenodd" d="M15.3918 0.33914C15.844 -0.113047 16.5771 -0.113047 17.0293 0.33914L21.6609 4.97072C22.113 5.4229 22.113 6.15604 21.6609 6.60823L6.60823 21.6609C6.39108 21.878 6.09657 22 5.78947 22H1.15789C0.518407 22 0 21.4816 0 20.8421V16.2105C0 15.9034 0.121992 15.6089 0.33914 15.3918L11.9178 3.81306L15.3918 0.33914ZM12.7368 6.26909L2.31579 16.6901V19.6842H5.30986L15.7309 9.26316L12.7368 6.26909ZM17.3684 7.62565L14.3744 4.63158L16.2105 2.7954L19.2046 5.78947L17.3684 7.62565Z" fill="white"/>
</svg>
