<svg width="22" height="22" viewBox="0 0 22 22" fill="none" xmlns="http://www.w3.org/2000/svg">
<path d="M13.2223 11L21.5402 2.68149C22.1533 2.0684 22.1533 1.07291 21.5402 0.459817C20.9272 -0.153272 19.9317 -0.153272 19.3171 0.459817L10.9992 8.77833L2.68285 0.459817C2.06981 -0.153272 1.07438 -0.153272 0.459785 0.459817C-0.153262 1.07291 -0.153262 2.0684 0.459785 2.68149L8.77771 11L0.459785 19.3185C-0.153262 19.9316 -0.153262 20.9271 0.459785 21.5402C0.766308 21.8467 1.16881 22 1.57132 22C1.97382 22 2.37633 21.8467 2.68285 21.5402L10.9992 13.2232L19.3156 21.5402C19.6221 21.8467 20.0246 22 20.4271 22C20.8296 22 21.2321 21.8467 21.5387 21.5402C22.1517 20.9271 22.1517 19.9316 21.5387 19.3185L13.2223 11Z" fill="white"/>
</svg>
