<svg width="28" height="29" viewBox="0 0 28 29" fill="none" xmlns="http://www.w3.org/2000/svg">
<path d="M21.5351 5.80579C20.6482 5.80579 19.9189 6.53358 19.9189 7.41873C19.9189 8.30388 20.6482 9.03167 21.5351 9.03167C22.422 9.03167 23.1512 8.30388 23.1512 7.41873C23.1512 6.53358 22.422 5.80579 21.5351 5.80579Z" fill="#EE6F2E"/>
<path d="M14.4 7.87122C10.6749 7.87122 7.63965 10.9004 7.63965 14.618C7.63965 18.3357 10.6749 21.3649 14.4 21.3649C18.125 21.3649 21.1603 18.3357 21.1603 14.618C21.1406 10.8807 18.125 7.87122 14.4 7.87122ZM14.4 18.9258C12.0151 18.9258 10.0639 16.9981 10.0639 14.5984C10.0639 12.1986 11.9954 10.271 14.4 10.271C16.7848 10.271 18.736 12.1986 18.736 14.5984C18.736 16.9981 16.7848 18.9258 14.4 18.9258Z" fill="#EE6F2E"/>
<path d="M19.7614 28.2886H8.80296C4.2501 28.2886 0.564453 24.5907 0.564453 20.0666V9.14969C0.564453 4.60591 4.26981 0.927612 8.80296 0.927612H19.7614C24.3142 0.927612 27.9999 4.62558 27.9999 9.14969V20.0862C27.9999 24.6103 24.2945 28.2886 19.7614 28.2886ZM8.80296 3.48472C5.68888 3.48472 3.14637 6.02215 3.14637 9.13002V20.0666C3.14637 23.1744 5.68888 25.7119 8.80296 25.7119H19.7614C22.8754 25.7119 25.4179 23.1744 25.4179 20.0666V9.14969C25.4179 6.04182 22.8754 3.50439 19.7614 3.50439H8.80296V3.48472Z" fill="#EE6F2E"/>
</svg>
