<svg width="112" height="91" viewBox="0 0 112 91" fill="none" xmlns="http://www.w3.org/2000/svg">
<g clip-path="url(#clip0)">
<path d="M22.4746 78.5291L43.5904 57.4152L55.9388 69.886L34.9465 91L22.4746 78.5291Z" fill="#4B9CDF"/>
<path d="M55.9385 45.0678L66.0642 34.943L78.5361 47.4138L68.4104 57.4152L55.9385 45.0678Z" fill="#4B9CDF"/>
<path d="M0 56.057L20.9923 34.943L33.4642 47.2903L12.4719 68.4043L0 56.057Z" fill="#87C44B"/>
<path d="M33.4639 22.4722L43.5896 12.4708L56.0614 24.8182L45.9358 34.943L33.4639 22.4722Z" fill="#87C44B"/>
<path d="M55.9051 45.0461L43.5098 57.4474L55.9121 69.8416L68.3074 57.4404L55.9051 45.0461Z" fill="#184F83"/>
<path d="M77.0542 90.8765L55.9385 69.886L68.4104 57.4152L89.5261 78.5291L77.0542 90.8765Z" fill="#4B75AC"/>
<path d="M33.4764 22.5334L21.0811 34.9347L33.4834 47.3289L45.8787 34.9277L33.4764 22.5334Z" fill="#6595AD"/>
<path d="M43.5896 57.4152L33.4639 47.2903L45.9358 34.943L55.938 45.0678L43.5896 57.4152Z" fill="#34B5D9"/>
<path d="M55.9937 -0.0657709L43.5967 12.3337L55.9972 24.7297L68.3943 12.3302L55.9937 -0.0657709Z" fill="#6595AD"/>
<path d="M78.5066 22.5331L66.1113 34.9343L78.5136 47.3286L90.9089 34.9273L78.5066 22.5331Z" fill="#184F83"/>
<path d="M99.6519 68.4043L78.5361 47.4138L90.8845 34.943L112 56.057L99.6519 68.4043Z" fill="#4B75AC"/>
<path d="M56.0615 24.8182L68.4099 12.4708L78.5356 22.5957L66.0637 34.943L56.0615 24.8182Z" fill="#34B5D9"/>
</g>
<defs>
<clipPath id="clip0">
<rect width="112" height="91" fill="white"/>
</clipPath>
</defs>
</svg>
