<?xml version="1.0" encoding="utf-8"?>
<!-- Generator: Adobe Illustrator 25.2.1, SVG Export Plug-In . SVG Version: 6.00 Build 0)  -->
<svg version="1.1" id="Layer_1" xmlns="http://www.w3.org/2000/svg" xmlns:xlink="http://www.w3.org/1999/xlink" x="0px" y="0px"
	 viewBox="0 0 540 162" style="enable-background:new 0 0 540 162;" xml:space="preserve">
<style type="text/css">
	.st0{fill:#4B9CDF;}
	.st1{fill:#87CA4D;}
	.st2{fill:#184F83;}
	.st3{fill:#4C75AC;}
	.st4{fill:#6595AD;}
	.st5{fill:#34B5D9;}
</style>
<g>
	<polygon class="st0" points="58.2,114.5 79.5,93.1 92.1,105.7 70.8,127.1 	"/>
	<polygon class="st0" points="92.1,80.5 102.4,70.3 114.9,82.9 104.7,93.1 	"/>
	<polygon class="st1" points="35.4,91.7 56.7,70.3 69.3,82.8 48,104.2 	"/>
	<polygon class="st1" points="69.3,57.7 79.6,47.5 92.1,60.1 81.9,70.3 	"/>
	
		<rect x="83.2" y="84.2" transform="matrix(0.7069 -0.7073 0.7073 0.7069 -38.8654 92.4191)" class="st2" width="17.8" height="17.8"/>
	<polygon class="st3" points="113.5,127 92.1,105.7 104.7,93.1 126.1,114.4 	"/>
	
		<rect x="60.4" y="61.4" transform="matrix(0.7069 -0.7073 0.7073 0.7069 -29.3903 69.606)" class="st4" width="17.8" height="17.8"/>
	<polygon class="st5" points="79.5,93.1 69.3,82.8 81.9,70.3 92.1,80.5 	"/>
	<rect x="83.2" y="38.6" transform="matrix(0.707 -0.7072 0.7072 0.707 -6.5809 79.0694)" class="st4" width="17.8" height="17.8"/>
	
		<rect x="106" y="61.4" transform="matrix(0.7069 -0.7073 0.7073 0.7069 -16.0523 101.8948)" class="st2" width="17.8" height="17.8"/>
	<polygon class="st3" points="136.3,104.2 114.9,82.9 127.5,70.3 148.9,91.6 	"/>
	<polygon class="st5" points="92.1,60.1 104.7,47.5 114.9,57.7 102.4,70.3 	"/>
</g>
<g>
	<g>
		<path class="st3" d="M176,36.2h4.8v17.2h20.5V36.2h4.8v39.4h-4.8V57.6h-20.5v17.9H176V36.2z"/>
		<path class="st3" d="M214.1,46.3h4.7v19.8c0,3.8,1.3,6.3,5.6,6.3c3.6,0,6.6-1.7,9-4.7V46.3h4.7v29.2h-4.2l-0.4-3.9
			c-2.5,2.5-5.9,4.6-10,4.6c-6.6,0-9.3-4-9.3-10.1V46.3z"/>
		<path class="st3" d="M245.6,46.3h4.3l0.3,3.8c2.5-2.5,5.8-4.5,9.6-4.5c4.3,0,6.8,1.9,8,4.8c2.8-2.8,6.3-4.8,10.3-4.8
			c6.2,0,8.9,4,8.9,10.1v19.8h-4.7v-20c0-3.8-1.5-6.2-5.3-6.2c-3.2,0-6.2,1.6-8.5,4.3c0.1,0.7,0.1,1.5,0.1,2.2v19.6h-4.7v-20
			c0-3.8-1.4-6.2-5.3-6.2c-3.3,0-6.3,1.7-8.5,4.5v21.6h-4.7V46.3z"/>
		<path class="st3" d="M310.2,58.8v-4.3c0-2.9-1.7-5-5.7-5c-3,0-6.4,1.2-9.2,2.7l-1.8-3.7c3.1-1.5,7.3-2.9,11.1-2.9
			c7.3,0,10.2,3.8,10.2,8.9v14.6c0,2,1.1,3,2.9,3v3.4c-4.1,0-6-1.1-7-3.7c-2.2,2.5-5.5,4.3-9.6,4.3c-5.1,0-8.5-3-8.5-7.4
			C292.6,61.5,301.2,59.2,310.2,58.8z M302.2,72.6c3.5,0,6.4-1.7,8-3.7v-7.1c-5.8,0.3-12.9,1.4-12.9,6.6
			C297.2,71,299.2,72.6,302.2,72.6z"/>
		<path class="st3" d="M323,46.3h4.3l0.3,3.9c2.5-2.6,5.9-4.7,10-4.7c6.6,0,9.2,4,9.2,10.1v19.8h-4.7V55.7c0-3.8-1.5-6.3-5.6-6.3
			c-3.6,0-6.6,1.7-8.9,4.7v21.5H323V46.3z"/>
		<path class="st3" d="M354.4,36.1h4.7v5.3h-4.7V36.1z M354.4,46.5h4.7v29h-4.7V46.5z"/>
		<path class="st3" d="M368.8,49.9h-5.1v-3.6h5.1v-8.5h4.7v8.5h8.4v3.6h-8.4v17.8c0,3,1.1,4.7,3.8,4.7c1.6,0,3-0.5,4.3-1.4l1.8,3
			c-1.7,1.2-4.2,2.2-6.6,2.2c-5.5,0-8-2.9-8-8.4V49.9z"/>
		<path class="st3" d="M404.1,58.8v-4.3c0-2.9-1.7-5-5.7-5c-3,0-6.4,1.2-9.2,2.7l-1.8-3.7c3.1-1.5,7.3-2.9,11.1-2.9
			c7.3,0,10.2,3.8,10.2,8.9v14.6c0,2,1.1,3,2.9,3v3.4c-4.1,0-6-1.1-7-3.7c-2.2,2.5-5.5,4.3-9.6,4.3c-5.1,0-8.5-3-8.5-7.4
			C386.6,61.5,395.1,59.2,404.1,58.8z M396.2,72.6c3.5,0,6.4-1.7,8-3.7v-7.1c-5.8,0.3-12.9,1.4-12.9,6.6
			C391.2,71,393.2,72.6,396.2,72.6z"/>
		<path class="st3" d="M417,46.3h4.2l0.4,4.9c2.2-3.8,5.2-5.7,8.9-5.7c1.5,0,2.7,0.2,3.7,0.6l-0.9,4.4c-1-0.4-2.1-0.6-3.4-0.6
			c-3.4,0-6,2-8.2,6v19.6H417V46.3z"/>
		<path class="st3" d="M438.9,36.1h4.7v5.3h-4.7V36.1z M438.9,46.5h4.7v29h-4.7V46.5z"/>
		<path class="st3" d="M466.8,58.8v-4.3c0-2.9-1.7-5-5.7-5c-3,0-6.4,1.2-9.2,2.7l-1.8-3.7c3.1-1.5,7.3-2.9,11.1-2.9
			c7.3,0,10.2,3.8,10.2,8.9v14.6c0,2,1.1,3,2.9,3v3.4c-4.1,0-6-1.1-7-3.7c-2.2,2.5-5.5,4.3-9.6,4.3c-5.1,0-8.5-3-8.5-7.4
			C449.2,61.5,457.8,59.2,466.8,58.8z M458.8,72.6c3.5,0,6.4-1.7,8-3.7v-7.1c-5.8,0.3-12.9,1.4-12.9,6.6
			C453.9,71,455.8,72.6,458.8,72.6z"/>
		<path class="st3" d="M479.6,46.3h4.3l0.3,3.9c2.5-2.6,5.9-4.7,10-4.7c6.6,0,9.2,4,9.2,10.1v19.8h-4.7V55.7c0-3.8-1.5-6.3-5.6-6.3
			c-3.6,0-6.6,1.7-8.9,4.7v21.5h-4.7V46.3z"/>
	</g>
	<g>
		<path class="st3" d="M176.1,89h23.8v1.8h-21.7v15.4h19.5v1.8h-19.5v17.8h-2.1V89z"/>
		<path class="st3" d="M205.8,89.4h2.1v3.8h-2.1V89.4z M205.8,99.3h2.1v26.6h-2.1V99.3z"/>
		<path class="st3" d="M216.6,99.3h1.8l0.2,4.1c2.5-2.6,5.9-4.8,10.1-4.8c6.1,0,8.2,3.6,8.2,8.7v18.6H235v-18.6c0-4.2-1.6-7-6.4-7
			c-4,0-7.2,2-9.9,5.2v20.3h-2.1V99.3z"/>
		<path class="st3" d="M260.3,111.3v-5.2c0-3.2-1.9-5.7-6.4-5.7c-3,0-6.2,1.2-8.4,2.4l-0.9-1.7c2.4-1.3,5.9-2.4,9.3-2.4
			c6,0,8.4,3.2,8.4,7.5v15c0,2.1,1.2,3.2,3,3.2v1.6c-2.8,0-4.4-1.3-4.8-3.7c-1.9,2.4-5.3,4.3-9.4,4.3c-4.5,0-7.5-2.5-7.5-6.4
			C243.5,113.1,252.9,111.7,260.3,111.3z M251.3,124.8c4.1,0,7.4-2.1,9-4.4v-7.5c-6.3,0.3-14.7,1.5-14.7,7.2
			C245.6,123,247.8,124.8,251.3,124.8z"/>
		<path class="st3" d="M270.3,99.3h1.8l0.2,4.1c2.5-2.6,5.9-4.8,10.1-4.8c6.1,0,8.2,3.6,8.2,8.7v18.6h-2.1v-18.6c0-4.2-1.6-7-6.4-7
			c-4,0-7.2,2-9.9,5.2v20.3h-2.1V99.3z"/>
		<path class="st3" d="M308.9,98.6c3.6,0,6.3,1.2,7.9,2.4l-1.2,1.5c-1.4-1-3.6-2.2-6.7-2.2c-5.9,0-10,4.6-10,11.8
			c0,7.7,4,12.5,10,12.5c3.3,0,5.4-1.1,7.3-2.6l1.3,1.4c-2.2,1.9-4.7,3.1-8.5,3.1c-7.3,0-12.1-5.5-12.1-14.3
			C296.9,103.9,301.8,98.6,308.9,98.6z"/>
		<path class="st3" d="M332.9,98.6c7.2,0,10.3,5,10.3,11.5c0,0.5-0.1,1.3-0.1,1.7h-20.4v0.4c0,7.8,3.4,12.6,10.3,12.6
			c3.1,0,6.2-1.3,8.2-2.7l1.1,1.5c-2.3,1.6-5.7,2.9-9.3,2.9c-8.2,0-12.3-5.4-12.3-14.3C320.6,103.9,325.8,98.6,332.9,98.6z
			 M322.7,110.2h18.4c0.2-5.4-2.2-9.9-8.3-9.9C327.5,100.3,323.5,104.1,322.7,110.2z"/>
		<path class="st3" d="M362.6,89h23.8v1.8h-21.7v15.4h19.5v1.8h-19.5v17.8h-2.1V89z"/>
		<path class="st3" d="M401.4,98.6c7.1,0,12.3,5.3,12.3,13.5c0,8.8-5,14.3-12.3,14.3c-7.4,0-12.4-5.5-12.4-14.3
			C389.1,103.9,394.3,98.6,401.4,98.6z M401.4,124.8c6.1,0,10.2-5,10.2-12.6c0-7.1-4.3-11.8-10.2-11.8c-6,0-10.3,4.7-10.3,11.8
			C391.1,119.8,395.2,124.8,401.4,124.8z"/>
		<path class="st3" d="M420.1,99.3h1.8l0.3,4.7c2.1-3.6,5.1-5.4,8.5-5.4c1.2,0,2.4,0.2,3.2,0.4l-0.4,2c-0.8-0.2-1.8-0.4-2.9-0.4
			c-3.3,0-6.2,2-8.4,5.6v19.7h-2.1V99.3z"/>
		<path class="st3" d="M438.4,99.3h2.1v18.6c0,4.2,1.6,7,6.4,7c4,0,7.2-2,9.9-5.2V99.3h2.1v26.6h-1.7l-0.3-4.1
			c-2.5,2.6-6,4.7-10.2,4.7c-6.1,0-8.2-3.5-8.2-8.7V99.3z"/>
		<path class="st3" d="M466.4,99.3h1.8l0.2,3.8c2.4-2.5,5.7-4.5,9.6-4.5c4.1,0,6.3,1.8,7.3,4.8c2.5-2.6,6-4.8,10.1-4.8
			c5.7,0,7.9,3.6,7.9,8.7v18.6h-2v-18.6c0-4.1-1.6-6.9-6.1-6.9c-3.7,0-6.9,1.8-9.4,4.7c0.1,0.7,0.2,1.5,0.2,2.3v18.5h-2.1v-18.6
			c0-4.1-1.5-6.9-6.1-6.9c-3.7,0-6.9,1.8-9.4,4.8v20.7h-2.1V99.3z"/>
	</g>
</g>
</svg>
