<svg width="26" height="28" viewBox="0 0 26 28" fill="none" xmlns="http://www.w3.org/2000/svg">
<path d="M25.5763 24.7144L20.678 19.5706C22.2011 17.5145 23.1111 14.9342 23.1111 12.1347C23.1111 5.44378 17.9272 0 11.5556 0C5.18395 0 0 5.44378 0 12.1347C0 18.8257 5.18395 24.2695 11.5556 24.2695C14.2214 24.2695 16.6769 23.3139 18.6349 21.7144L23.5332 26.8582C23.8157 27.1548 24.1848 27.3032 24.554 27.3032C24.9231 27.3032 25.2938 27.1548 25.5747 26.8582C26.1396 26.2667 26.1396 25.306 25.5763 24.7144ZM2.88889 12.1347C2.88889 7.11568 6.77605 3.03368 11.5556 3.03368C16.3351 3.03368 20.2222 7.11568 20.2222 12.1347C20.2222 17.1538 16.3351 21.2358 11.5556 21.2358C6.77605 21.2358 2.88889 17.1521 2.88889 12.1347Z" fill="#264F7F"/>
</svg>
