<svg width="22" height="23" viewBox="0 0 22 23" fill="none" xmlns="http://www.w3.org/2000/svg">
<g clip-path="url(#clip0)">
<path d="M15.1876 6.1856L11.0292 10.344L6.87075 6.1856C6.50817 5.82302 5.92015 5.82302 5.55756 6.1856C5.19498 6.54819 5.19498 7.13621 5.55756 7.49879L9.716 11.6572L5.55756 15.8157C5.19498 16.1782 5.19498 16.7663 5.55756 17.1289C5.92015 17.4914 6.50817 17.4914 6.87075 17.1289L11.0292 12.9704L15.1876 17.1289C15.5502 17.4914 16.1382 17.4914 16.5008 17.1289C16.8634 16.7663 16.8634 16.1782 16.5008 15.8157L12.3424 11.6572L16.5008 7.49879C16.8634 7.13621 16.8634 6.54819 16.5008 6.1856C16.1382 5.82302 15.5502 5.82302 15.1876 6.1856Z" fill="white"/>
</g>
<defs>
<clipPath id="clip0">
<rect width="15.4761" height="15.4761" fill="white" transform="translate(0.0859375 11.6572) rotate(-45)"/>
</clipPath>
</defs>
</svg>
