<svg width="32" height="27" viewBox="0 0 32 27" fill="none" xmlns="http://www.w3.org/2000/svg">
<path d="M31.3395 3.68465C30.3343 4.13706 29.2306 4.41244 28.1663 4.58947C28.6787 4.51079 29.4277 3.5863 29.7233 3.21257C30.1766 2.64214 30.5708 1.99303 30.7876 1.28491C30.8073 1.2259 30.827 1.16689 30.7876 1.12755C30.7285 1.10788 30.6694 1.10788 30.6102 1.14722C29.408 1.79633 28.1663 2.24874 26.8458 2.58313C26.7275 2.6028 26.6487 2.58313 26.5895 2.52412C26.4713 2.4061 26.3727 2.28808 26.2545 2.18973C25.7026 1.71765 25.1113 1.34392 24.4215 1.06854C23.5346 0.714475 22.5688 0.557114 21.6228 0.616125C20.6964 0.675135 19.7898 0.930845 18.962 1.36359C18.1342 1.79633 17.405 2.38643 16.8137 3.11422C16.2027 3.86168 15.7691 4.74684 15.5326 5.67133C15.3158 6.57615 15.3355 7.4613 15.4735 8.36612C15.4932 8.52348 15.4735 8.54315 15.3355 8.52348C10.152 7.75635 5.87502 5.90737 2.38647 1.95369C2.2288 1.77666 2.14996 1.77666 2.03171 1.97336C0.514086 4.25508 1.24333 7.91371 3.15514 9.72336C3.41136 9.9594 3.66758 10.1954 3.94351 10.4315C3.84496 10.4511 2.58356 10.3135 1.44042 9.72336C1.30246 9.60534 1.22362 9.64468 1.20391 9.82171C1.1842 10.0774 1.20391 10.2938 1.24333 10.5692C1.53897 12.8706 3.13542 15.0146 5.34287 15.8604C5.59909 15.9784 5.89473 16.0571 6.17066 16.1161C5.67793 16.2341 5.14578 16.3128 3.72671 16.1948C3.54932 16.1555 3.47048 16.2538 3.54932 16.4112C4.63333 19.342 6.95904 20.2075 8.69346 20.7189C8.92997 20.7583 9.16648 20.7583 9.403 20.8173C9.38329 20.8369 9.38329 20.8369 9.36358 20.8566C8.79201 21.7418 6.78165 22.3909 5.85531 22.7253C4.16031 23.3154 2.30764 23.5907 0.514086 23.4137C0.218445 23.3744 0.159315 23.3744 0.0804777 23.4137C0.00164041 23.4531 0.0607702 23.5317 0.159317 23.6104C0.514085 23.8465 0.888561 24.0628 1.26304 24.2595C2.40618 24.8693 3.58874 25.3414 4.83043 25.6758C11.2557 27.4461 18.4693 26.1479 23.2981 21.368C27.0823 17.611 28.4028 12.4378 28.4028 7.2646C28.4028 7.0679 28.6393 6.94988 28.7773 6.85153C29.7627 6.10407 30.5511 5.23859 31.2804 4.23541C31.438 4.01904 31.438 3.82234 31.438 3.74366C31.438 3.72399 31.438 3.72399 31.438 3.72399C31.4577 3.60597 31.4577 3.62564 31.3395 3.68465Z" fill="#EE6F2E"/>
</svg>
